<svg xmlns="http://www.w3.org/2000/svg" id="Livello_1" version="1.1" viewBox="0 0 1153.2 600"><defs><style>.st0{fill:#0072ce}</style></defs><path d="M4.7 597.3h34.4V417.7l-34.4 6zM0 395.1l41.1-7v-38.2l-41.1 7zM178.8 416.2c-21 0-41.9 9.3-56.4 24.5v-23l-33.7 6.1v173.6h34.4v-87.7c0-41.8 24.7-60.8 47.6-60.8s37.4 10.4 37.4 44.5v103.9h34.7V486.2c0-47.8-20.3-70.1-64-70.1ZM341.9 374.9c1.2 0 2.6 0 3.8.2l4.1.8 9.4-30.4-4.4-1.4c-5.6-1.7-11.1-2.6-17-2.6-30.9 0-52.4 25.3-52.4 61.6v194.1h34.3L320 468l37-6.8V428l-37 6.8-.3-31.8c-.2-10.7 1.9-18.4 6.3-22.8 3.5-3.6 8.7-5.3 15.8-5.3ZM462.2 416.2c-53.9 0-87.3 35.3-87.3 92.1s33.2 91.4 86.7 91.4 88.4-35.3 88.4-92.1-33.6-91.4-87.7-91.4Zm-51.6 91.7c0-27 8.9-59.1 51.3-59.1s52.3 22.6 52.3 59.1-20.3 59.1-53 59.1-50.6-32.1-50.6-59.1M710.2 557.5c-15.4 6.4-31.2 9.8-45.7 9.8-37.2 0-55.4-19.3-55.4-59.1s17.7-61.1 51.3-61.1 32.9 3.3 49.5 9.8l4.7 1.9 9.1-31.2-4.2-1.4c-20.4-6.9-39.7-10.4-57.4-10.4-56.4 0-88.7 33.8-88.7 92.8s32.5 91.4 89 91.4 37-3.5 57.4-10.4l4.1-1.4-9-32.7-4.9 2ZM832 416.2c-42.5 0-85.3 27.9-85.3 90.4s33.7 93.1 90.1 93.1 37-3.5 57.4-10.4l4.1-1.4-9-32.7-4.9 2c-15.4 6.4-31.2 9.8-45.7 9.8-28.8 0-48.1-13.3-53.6-36.8l125.6-25.3v-3.8c0-51.6-31-85-78.9-85ZM796.9 461c8.5-8.6 20.5-13.2 34.7-13.2 24.3 0 39 11 43.8 32.7l-92.9 18.3c.8-16.3 5.6-29 14.4-37.9ZM1147.5 564.4l-4.4.6c-2 .3-4.5.3-7.1.3-20.8 0-28.9-7.5-28.9-26.9v-79.2l45.4-8.1v-33.5l-45.4 8.1v-55.6l-34.4 6v162.2c0 13.8 4 58.8 56.1 59.5 8.1 0 14.8-.8 20.4-2.6l3.9-1.2-5.7-29.8ZM980 444.6v-27l-34.4 6v173.6H980v-92.8c0-26.6 18.1-39.6 62.3-44.9l4.1-.5v-36.2l-5.5 1.1c-23.6 4.5-44.1 11.4-60.9 20.6ZM844.3 12.2l-78.7 13.9-39.7 57.5-35.8-44.2-60.4 10.7 64.4 79.5-68.6 99h69.1l36.7-53 43 53h69.1l-80.3-99zM143.5 228.6h58.8V37.1l-58.8 10.4zM355.4 34.7c-23.5 0-46.9 12-57.4 29.2V37.2l-58.8 10.4v181.2H298v-94.1c0-33.3 13.7-48.7 33.3-48.7s28 14.4 28 46.2v96.5h58.8V108.4c0-51.1-23.1-73.6-62.7-73.6ZM1149.6 200.6V98.4c0-45.5-29.1-63.4-76.3-63.4s-23.5 1.8-37.9 4.3l-41.2 7.3v45.1l38.9-6.8c11.9-2 22.1-3.6 31.5-3.6 15.8 0 26.3 4.6 26.3 18.9v5.9l-60.6 10.7c-41.3 7-57.8 29.9-57.8 56.9 0 41 30.1 57.4 60.2 57.4s48.3-7.7 58.1-20l2.5 17.5h59.5c-2.1-10.9-3.2-19.3-3.2-28m-58.9-49.3c0 25.9-22.1 39.2-42.7 39.2s-21.7-6.7-21.7-18.6 4.7-17.5 26.8-21.4l37.7-6.6v7.4Z" class="st0"></path><path d="M598.7 53.9c-13.6-11.4-32.5-19.2-58.9-19.2s-56 9-74.4 28.9c-15 16.2-24.3 39.5-24.3 70.9 0 62 31.5 96.6 99.1 96.6s53.9-5.9 70.7-12.6L599.7 174c-17.5 7.7-42 11.5-56 11.5s-38.3-8.5-41.8-25l131.2-23.1s1.1-53.8-34.4-83.5M499.6 123c0-30.8 17.2-44.6 40.6-44.6s31.1 11.8 34.6 31.3zM68.2 0 9.4 10.4v150.7c0 53.9 28.4 70.4 64.8 70 11.9 0 24.2-2.1 36.8-5.2l-8.4-45.5c-6 2.1-11.9 2.8-16.5 2.8-11.2-.4-17.9-7-17.9-21.7v-55.6l44.1-7.8V53l-44.1 7.8zM913.6 0l-58.8 10.4v150.7c0 53.9 28.4 70.4 64.8 70 11.9 0 24.2-2.1 36.8-5.2l-8.4-45.5c-6 2.1-11.9 2.8-16.5 2.8-11.2-.4-17.9-7-17.9-21.7v-55.6l44.1-7.8V53l-44.1 7.8z" class="st0"></path></svg>